<svg width="136" height="133" viewBox="0 0 136 133" fill="none" xmlns="http://www.w3.org/2000/svg">
<g filter="url(#filter0_d_56_159)">
<rect x="4" width="128" height="125" rx="18" fill="white"/>
<path d="M48.0044 40.5044C48.002 29.7348 56.7304 21.0024 67.5 21C78.2696 20.9976 87.002 29.7261 87.0044 40.4956L87.0138 82.4956C87.0162 93.2652 78.2877 101.998 67.5182 102C56.7486 102.002 48.0162 93.2739 48.0138 82.5044L48.0044 40.5044Z" fill="#7252FE"/>
<path d="M48.0044 83.5044C48.002 72.7348 56.7304 64.0024 67.5 64C78.2696 63.9976 87.002 72.7261 87.0044 83.4956L87.0046 84.4956C87.007 95.2652 78.2785 103.998 67.509 104C56.7394 104.002 48.007 95.2739 48.0046 84.5044L48.0044 83.5044Z" fill="#FEF023"/>
<path d="M48 62.0044L87 61.9956L87.0049 83.9956L48.0049 84.0044L48 62.0044Z" fill="#FEF023"/>
</g>
<defs>
<filter id="filter0_d_56_159" x="0" y="0" width="136" height="133" filterUnits="userSpaceOnUse" color-interpolation-filters="sRGB">
<feFlood flood-opacity="0" result="BackgroundImageFix"/>
<feColorMatrix in="SourceAlpha" type="matrix" values="0 0 0 0 0 0 0 0 0 0 0 0 0 0 0 0 0 0 127 0" result="hardAlpha"/>
<feOffset dy="4"/>
<feGaussianBlur stdDeviation="2"/>
<feComposite in2="hardAlpha" operator="out"/>
<feColorMatrix type="matrix" values="0 0 0 0 0 0 0 0 0 0 0 0 0 0 0 0 0 0 0.25 0"/>
<feBlend mode="normal" in2="BackgroundImageFix" result="effect1_dropShadow_56_159"/>
<feBlend mode="normal" in="SourceGraphic" in2="effect1_dropShadow_56_159" result="shape"/>
</filter>
</defs>
</svg>
